<svg xmlns="http://www.w3.org/2000/svg" width="21" height="17"><defs><filter id="a"><feFlood flood-color="#FFF" flood-opacity="1" result="floodOut"/><feComposite operator="atop" in="floodOut" in2="SourceGraphic" result="compOut"/><feBlend in="compOut" in2="SourceGraphic"/></filter></defs><g filter="url(#a)"><path fill-rule="evenodd" d="M20.51 14.13h-2.4v2.4c0 .25-.22.47-.49.47H.47a.48.48 0 01-.48-.48V4.32c0-.26.21-.47.48-.47h2.4v-2.4c0-.26.22-.47.49-.47H20.5c.27 0 .48.21.48.48v12.2c0 .26-.21.47-.48.47zm-18.06.82c.03-.65.18-1.54.43-2.46V5.12h-1.6v10.6h15.53v-1.59h-1.44c.12.33.2.62.27.82H2.45zM19.7 2.25H4.17v10.61H19.7V2.26zm-8.78 4.27c.77 1.09 1.45 2.04 2.01 2.65.93.91 1.72-.47 2.7-.93 1.42-.67 2.6 2.8 2.9 3.85H5.33c.08-1.8 1.04-5.3 2.44-6.6 1.25-1.14 2.31-.14 3.14 1.03zm4.65-.31a1.6 1.6 0 01-1.62-1.6c0-.87.72-1.59 1.62-1.59.9 0 1.62.72 1.62 1.6 0 .87-.73 1.59-1.62 1.59z"/></g></svg>