<svg xmlns="http://www.w3.org/2000/svg" width="18" height="20"><defs><filter id="a"><feFlood flood-color="#FFF" flood-opacity="1" result="floodOut"/><feComposite operator="atop" in="floodOut" in2="SourceGraphic" result="compOut"/><feBlend in="compOut" in2="SourceGraphic"/></filter></defs><g filter="url(#a)"><path fill-rule="evenodd" d="M1.2 20h15.6c.66 0 1.2-.57 1.2-1.27V1.27C18 .57 17.46 0 16.8 0H1.2C.55 0 0 .57 0 1.27v17.46C0 19.43.54 20 1.2 20zM15.06 1.56c0-.21.16-.39.36-.39h1.13c.2 0 .36.18.36.39v1.23c0 .2-.16.38-.36.38h-1.13a.37.37 0 01-.36-.38V1.56zm0 3.13c0-.21.16-.39.36-.39h1.13c.2 0 .36.18.36.39v1.23c0 .2-.16.38-.36.38h-1.13a.38.38 0 01-.36-.38V4.69zm0 3.13c0-.21.16-.38.36-.38h1.13c.2 0 .36.17.36.38v1.23c0 .21-.16.38-.36.38h-1.13a.38.38 0 01-.36-.38V7.82zm0 3.13c0-.21.16-.38.36-.38h1.13c.2 0 .36.17.36.38v1.23c0 .21-.16.38-.36.38h-1.13a.37.37 0 01-.36-.38v-1.23zm0 3.13c0-.21.16-.38.36-.38h1.13c.2 0 .36.17.36.38v1.23c0 .21-.16.38-.36.38h-1.13a.37.37 0 01-.36-.38v-1.23zm0 3.13c0-.2.16-.38.36-.38h1.13c.2 0 .36.17.36.38v1.23c0 .21-.16.38-.36.38h-1.13a.37.37 0 01-.36-.38v-1.23zM4.18 2.48c0-.21.17-.38.37-.38h8.9c.2 0 .37.17.37.38v6.1c0 .2-.17.38-.37.38h-8.9a.37.37 0 01-.37-.39V2.48zm0 9.4c0-.21.17-.38.37-.38h8.9c.2 0 .37.17.37.38v5.63c0 .21-.17.38-.37.38h-8.9a.37.37 0 01-.37-.38v-5.63zM1.08 1.56c0-.21.17-.39.37-.39h1.13c.2 0 .36.18.36.39v1.23c0 .2-.16.38-.36.38H1.45a.37.37 0 01-.36-.38V1.56zm0 3.13c0-.21.17-.39.37-.39h1.13c.2 0 .36.18.36.39v1.23c0 .2-.16.38-.36.38H1.45a.37.37 0 01-.36-.38V4.69zm0 3.13c0-.21.17-.38.37-.38h1.13c.2 0 .36.17.36.38v1.23c0 .21-.16.38-.36.38H1.45c-.2 0-.36-.17-.36-.38V7.82zm0 3.13c0-.21.17-.38.37-.38h1.13c.2 0 .36.17.36.38v1.23c0 .21-.16.38-.36.38H1.45a.37.37 0 01-.36-.38v-1.23zm0 3.13c0-.21.17-.38.37-.38h1.13c.2 0 .36.17.36.38v1.23c0 .21-.16.38-.36.38H1.45a.37.37 0 01-.36-.38v-1.23zm0 3.13c0-.2.17-.38.37-.38h1.13c.2 0 .36.17.36.38v1.23c0 .21-.16.38-.36.38H1.45a.37.37 0 01-.36-.38v-1.23z"/></g></svg>