<svg xmlns="http://www.w3.org/2000/svg" width="22" height="16"><defs><filter id="a"><feFlood flood-color="#FFF" flood-opacity="1" result="floodOut"/><feComposite operator="atop" in="floodOut" in2="SourceGraphic" result="compOut"/><feBlend in="compOut" in2="SourceGraphic"/></filter></defs><g filter="url(#a)"><path fill-rule="evenodd" d="M19.08 16H2.92C1.32 16 0 14.68 0 13.07v-8.5a2.91 2.91 0 012.65-2.9c.13-.56.5-.94.93-.94h2.1c.42 0 .78.38.91.92h2.97L11.01 0h4.9l1.78 1.66h1.39c1.6 0 2.9 1.3 2.9 2.92v8.5c0 1.6-1.3 2.91-2.9 2.91zM2.64 6.5a.55.55 0 00-1.1 0v5.8a.55.55 0 101.1 0v-5.8zm3.3-3.04a.58.58 0 00-.57-.58h-1.5a.58.58 0 00-.57.58v.34c0 .32.26.58.58.58h1.49c.32 0 .58-.26.58-.58v-.34zm7.8.78a4.66 4.66 0 10.02 9.32 4.66 4.66 0 00-.02-9.32zm0 7.92a3.26 3.26 0 11.01-6.53 3.26 3.26 0 010 6.53z"/></g></svg>