<svg xmlns="http://www.w3.org/2000/svg" width="43" height="43"><defs><filter id="a"><feFlood flood-color="#E5493A" flood-opacity="1" result="floodOut"/><feComposite operator="atop" in="floodOut" in2="SourceGraphic" result="compOut"/><feBlend in="compOut" in2="SourceGraphic"/></filter></defs><g filter="url(#a)"><path fill-rule="evenodd" d="M38.55 25.8c-.64 1.98.24 4.76-.97 6.41-1.22 1.67-4.15 1.69-5.82 2.9-1.66 1.2-2.58 3.99-4.57 4.63-1.92.63-4.29-1.07-6.42-1.07s-4.5 1.7-6.42 1.07c-1.99-.64-2.9-3.42-4.56-4.63-1.67-1.21-4.6-1.23-5.82-2.9-1.21-1.65-.33-4.43-.98-6.42-.62-1.91-3-3.64-3-5.76 0-2.12 2.38-3.85 3-5.76.65-1.99-.23-4.77.98-6.42 1.21-1.67 4.14-1.69 5.82-2.9 1.66-1.2 2.57-3.99 4.56-4.63 1.92-.62 4.3 1.07 6.42 1.07 2.13 0 4.5-1.7 6.42-1.07 2 .64 2.91 3.42 4.57 4.63 1.67 1.21 4.6 1.23 5.82 2.9 1.2 1.65.33 4.43.97 6.42.63 1.91 3 3.64 3 5.76 0 2.12-2.37 3.85-3 5.77zM20.77 5.49A14.58 14.58 0 006.2 20.03a14.57 14.57 0 0029.15 0c0-8.02-6.54-14.54-14.58-14.54zm0 26.7a12.2 12.2 0 01-12.2-12.16 12.2 12.2 0 0124.4 0 12.2 12.2 0 01-12.2 12.17zm8.36-14.38a.74.74 0 00-.66-.5l-5.11-.34-1.9-4.75a.73.73 0 00-1.37 0l-1.9 4.75-5.12.33a.74.74 0 00-.42 1.3l3.95 3.27-1.27 4.96a.73.73 0 001.1.8l4.34-2.73 4.34 2.73c.25.16.58.15.83-.03a.74.74 0 00.28-.77l-1.27-4.96 3.95-3.27c.23-.19.32-.5.23-.79z"/></g></svg>