<svg xmlns="http://www.w3.org/2000/svg" width="41" height="40"><defs><filter id="a"><feFlood flood-color="#636363" flood-opacity="1" result="floodOut"/><feComposite operator="atop" in="floodOut" in2="SourceGraphic" result="compOut"/><feBlend in="compOut" in2="SourceGraphic"/></filter></defs><g filter="url(#a)"><path fill-rule="evenodd" d="M35.22 15.06l-.2-.07-.75-1.8.09-.2c2.28-5.2 2.13-5.35 1.75-5.72l-3.05-2.99a.81.81 0 00-.54-.21c-.17 0-.69 0-5.19 2.05l-.18.08-1.85-.75-.08-.19C23.1 0 22.9 0 22.36 0h-4.3c-.53 0-.77 0-2.73 5.27l-.07.2-1.85.75-.18-.08C10.18 4.86 8.4 4.2 7.94 4.2c-.19 0-.4.09-.53.21l-3.05 3c-.39.38-.55.54 1.85 5.63l.1.19-.76 1.8-.19.08C0 17.19 0 17.39 0 17.93v4.23c0 .55 0 .77 5.37 2.7l.2.07.75 1.8-.08.19c-2.29 5.2-2.14 5.34-1.75 5.73l3.04 2.99c.13.12.35.21.54.21.17 0 .69 0 5.2-2.05l.17-.08 1.86.75.07.2c2.12 5.25 2.34 5.25 2.87 5.25h4.3c.54 0 .77 0 2.73-5.27l.07-.2 1.85-.75.18.07c3.05 1.3 4.82 1.95 5.28 1.95.2 0 .41-.08.54-.2l3.06-3c.38-.4.54-.55-1.87-5.64l-.09-.19.76-1.8.18-.07c5.37-2.09 5.37-2.3 5.37-2.84v-4.23c0-.54 0-.76-5.38-2.69zM20.3 26.83a6.93 6.93 0 01-6.98-6.87 6.93 6.93 0 016.98-6.86 6.93 6.93 0 016.97 6.86 6.93 6.93 0 01-6.97 6.87z"/></g></svg>