<svg xmlns="http://www.w3.org/2000/svg" width="15" height="15"><defs><filter id="a"><feFlood flood-color="#FFF" flood-opacity="1" result="floodOut"/><feComposite operator="atop" in="floodOut" in2="SourceGraphic" result="compOut"/><feBlend in="compOut" in2="SourceGraphic"/></filter></defs><g filter="url(#a)"><path fill-rule="evenodd" d="M13.98 12.5l-2.8-2.8a5.58 5.58 0 001.01-3.24 5.64 5.64 0 00-1.67-4.06 5.75 5.75 0 00-8.12 8.12 5.74 5.74 0 007.3.66l2.8 2.79c.2.2.44.3.74.3a1 1 0 00.73-.3 1 1 0 00.3-.74 1 1 0 00-.3-.73zM9.04 9.04a3.52 3.52 0 01-2.58 1.07c-1 0-1.87-.36-2.58-1.07A3.51 3.51 0 012.8 6.46c0-1 .35-1.87 1.07-2.58A3.51 3.51 0 016.46 2.8c1 0 1.86.35 2.58 1.07a3.51 3.51 0 011.07 2.58c0 1-.36 1.86-1.07 2.58z"/></g></svg>