<svg xmlns="http://www.w3.org/2000/svg" width="15" height="14"><defs><filter id="a"><feFlood flood-color="#FFF" flood-opacity="1" result="floodOut"/><feComposite operator="atop" in="floodOut" in2="SourceGraphic" result="compOut"/><feBlend in="compOut" in2="SourceGraphic"/></filter></defs><g filter="url(#a)"><path fill-rule="evenodd" d="M12.97 6.2L10.4 8.77a3.63 3.63 0 01-5.7-.73l1.2-1.2c.06-.05.13-.08.2-.12.08.28.22.55.44.77.71.7 1.86.7 2.57 0l2.57-2.57a1.82 1.82 0 00-2.57-2.57l-.91.91a4.56 4.56 0 00-2.32-.25l1.95-1.95a3.64 3.64 0 015.14 5.14zm-6.8 4.23l-.91.91a1.82 1.82 0 01-2.57-2.57L5.26 6.2c.7-.7 1.86-.7 2.57 0 .22.22.36.5.45.77.06-.04.13-.07.19-.13l1.2-1.19a3.63 3.63 0 00-5.7-.73L1.4 7.49a3.64 3.64 0 005.14 5.14l1.95-1.95c-.78.11-1.58.04-2.32-.25z"/></g></svg>