<svg xmlns="http://www.w3.org/2000/svg" width="29" height="40"><defs><filter id="a"><feFlood flood-color="#636363" flood-opacity="1" result="floodOut"/><feComposite operator="atop" in="floodOut" in2="SourceGraphic" result="compOut"/><feBlend in="compOut" in2="SourceGraphic"/></filter></defs><g filter="url(#a)"><path fill-rule="evenodd" d="M24.21.4s-3.25 3.13-6.77 4.39C-8.6 14.13 2.38 32.34 2.74 32.4c0 0 1.46-2.52 3.43-3.96C18.7 19.31 21.25 8.8 21.25 8.8S18.43 21.45 7.29 29.32c-2.46 1.73-4.12 6-4.83 10.28 0 0 1.74-.7 2.5-.89.29-1.89.9-3.7 1.93-5.32 15.57 1.84 20.67-10.6 21.33-14.94C29.8 8.2 24.22.4 24.22.4z"/></g></svg>