<svg xmlns="http://www.w3.org/2000/svg" width="25" height="40"><defs><filter id="a"><feFlood flood-color="#636363" flood-opacity="1" result="floodOut"/><feComposite operator="atop" in="floodOut" in2="SourceGraphic" result="compOut"/><feBlend in="compOut" in2="SourceGraphic"/></filter></defs><g filter="url(#a)"><path fill-rule="evenodd" d="M21.74 41H3.27A3.24 3.24 0 010 37.78V4.1C0 2.33 1.47.9 3.27.9h18.47C23.54.9 25 2.32 25 4.1V37.8c0 1.77-1.46 3.2-3.26 3.2zm-9.24-1.2c.98 0 1.77-.79 1.77-1.75 0-.95-.8-1.73-1.77-1.73s-1.76.78-1.76 1.73c0 .96.8 1.74 1.76 1.74zm3-35.98a.8.8 0 00-.81-.79h-4.37a.8.8 0 00-.8.8v.01c0 .44.36.8.8.8h4.37a.8.8 0 00.8-.8v-.02zm6.78 3.49c0-.3-.24-.54-.54-.54H3.27c-.3 0-.54.25-.54.54v27.27c0 .3.24.53.54.53h18.47c.3 0 .54-.24.54-.53V7.3zm-2.7 25.13H5.43a.53.53 0 01-.54-.53v-.01c0-.3.24-.53.54-.53h14.13c.3 0 .54.24.54.53v.01c0 .3-.24.53-.54.53zm0-3.2H5.43a.53.53 0 01-.54-.54c0-.3.24-.54.54-.54h14.13c.3 0 .54.24.54.53v.01c0 .3-.24.53-.54.53zm0-3.22H5.43a.53.53 0 01-.54-.53c0-.3.24-.54.54-.54h14.13c.3 0 .54.24.54.53v.01c0 .3-.24.53-.54.53zm0-3.2H5.43a.53.53 0 01-.54-.54c0-.3.24-.54.54-.54h14.13a.53.53 0 110 1.07zm0-3.21H5.43a.53.53 0 01-.54-.53v-.01c0-.3.24-.53.54-.53h14.13c.3 0 .54.23.54.53 0 .3-.24.54-.54.54zm-.01-6.96h-1.63a.54.54 0 01-.55-.53v-1.6c0-.3.25-.54.55-.54h1.63c.3 0 .54.24.54.54v1.6c0 .3-.24.54-.54.54zm-4.35 0H13.6a.54.54 0 01-.54-.53v-1.6c0-.3.24-.54.54-.54h1.63c.3 0 .54.24.54.54v1.6c0 .3-.24.54-.54.54zm-3.8 0H9.79a.54.54 0 01-.54-.53v-1.6c0-.3.24-.54.54-.54h1.63c.3 0 .54.24.54.54v1.6c0 .3-.24.54-.54.54zm-4.35 0H5.44a.54.54 0 01-.54-.53v-1.6c0-.3.24-.54.54-.54h1.63c.3 0 .54.24.54.54v1.6c0 .3-.24.54-.54.54zm-1.63 2.68h9.24c.3 0 .54.24.54.53 0 .3-.24.54-.54.54H5.44a.53.53 0 01-.54-.53v-.01c0-.3.24-.53.54-.53z"/></g></svg>